<svg width="221" height="28" viewBox="0 0 221 28" fill="none" xmlns="http://www.w3.org/2000/svg">
<path d="M10.368 21.28C8.31467 21.28 6.55067 20.8693 5.076 20.048C3.62 19.208 2.5 18.032 1.716 16.52C0.932 14.9893 0.54 13.188 0.54 11.116C0.54 9.044 0.932 7.252 1.716 5.74C2.5 4.228 3.62 3.06133 5.076 2.24C6.55067 1.4 8.31467 0.979999 10.368 0.979999C11.7493 0.979999 12.9907 1.176 14.092 1.568C15.212 1.96 16.1733 2.53867 16.976 3.304L15.8 6.16C14.9227 5.45067 14.0733 4.94667 13.252 4.648C12.4493 4.33067 11.5253 4.172 10.48 4.172C8.48267 4.172 6.952 4.77867 5.888 5.992C4.84267 7.18667 4.32 8.89467 4.32 11.116C4.32 13.3373 4.84267 15.0547 5.888 16.268C6.952 17.4813 8.48267 18.088 10.48 18.088C11.5253 18.088 12.4493 17.9387 13.252 17.64C14.0733 17.3227 14.9227 16.8 15.8 16.072L16.976 18.928C16.1733 19.6747 15.212 20.2533 14.092 20.664C12.9907 21.0747 11.7493 21.28 10.368 21.28ZM25.4716 21.28C24.0156 21.28 22.7556 20.9813 21.6916 20.384C20.6276 19.7867 19.7969 18.9373 19.1996 17.836C18.6209 16.7347 18.3316 15.428 18.3316 13.916C18.3316 12.404 18.6209 11.1067 19.1996 10.024C19.7969 8.92267 20.6276 8.07333 21.6916 7.476C22.7556 6.87867 24.0156 6.58 25.4716 6.58C26.9276 6.58 28.1876 6.87867 29.2516 7.476C30.3343 8.07333 31.1649 8.92267 31.7436 10.024C32.3409 11.1067 32.6396 12.404 32.6396 13.916C32.6396 15.428 32.3409 16.7347 31.7436 17.836C31.1649 18.9373 30.3343 19.7867 29.2516 20.384C28.1876 20.9813 26.9276 21.28 25.4716 21.28ZM25.4716 18.592C26.5729 18.592 27.4503 18.2093 28.1036 17.444C28.7569 16.66 29.0836 15.484 29.0836 13.916C29.0836 12.348 28.7569 11.1813 28.1036 10.416C27.4503 9.65067 26.5729 9.268 25.4716 9.268C24.3703 9.268 23.4929 9.65067 22.8396 10.416C22.1863 11.1813 21.8596 12.348 21.8596 13.916C21.8596 15.484 22.1863 16.66 22.8396 17.444C23.4929 18.2093 24.3703 18.592 25.4716 18.592ZM40.7539 21.28C39.0179 21.28 37.7206 20.804 36.8619 19.852C36.0032 18.9 35.5739 17.444 35.5739 15.484V6.86H39.0739V15.456C39.0739 16.5013 39.2886 17.276 39.7179 17.78C40.1472 18.2653 40.8006 18.508 41.6779 18.508C42.6672 18.508 43.4699 18.172 44.0859 17.5C44.7206 16.828 45.0379 15.9413 45.0379 14.84V6.86H48.5379V21H45.1219V18.116H45.5139C45.1032 19.124 44.4779 19.908 43.6379 20.468C42.8166 21.0093 41.8552 21.28 40.7539 21.28ZM52.3376 27.048V10.388C52.3376 9.80933 52.3189 9.22133 52.2816 8.624C52.2443 8.02667 52.1883 7.43867 52.1136 6.86H55.5016L55.8096 9.828H55.5016C55.7816 8.83867 56.3696 8.05467 57.2656 7.476C58.1803 6.87867 59.2349 6.58 60.4296 6.58C61.6803 6.58 62.7723 6.87867 63.7056 7.476C64.6389 8.05467 65.3669 8.89467 65.8896 9.996C66.4123 11.0787 66.6736 12.3853 66.6736 13.916C66.6736 15.4467 66.4123 16.7627 65.8896 17.864C65.3669 18.9653 64.6389 19.8147 63.7056 20.412C62.7723 20.9907 61.6803 21.28 60.4296 21.28C59.2536 21.28 58.2176 20.9907 57.3216 20.412C56.4256 19.8333 55.8283 19.0587 55.5296 18.088H55.8376V27.048H52.3376ZM59.4496 18.592C60.5696 18.592 61.4656 18.2093 62.1376 17.444C62.8096 16.66 63.1456 15.484 63.1456 13.916C63.1456 12.348 62.8096 11.1813 62.1376 10.416C61.4656 9.65067 60.5696 9.268 59.4496 9.268C58.3483 9.268 57.4616 9.65067 56.7896 10.416C56.1176 11.1813 55.7816 12.348 55.7816 13.916C55.7816 15.484 56.1176 16.66 56.7896 17.444C57.4616 18.2093 58.3483 18.592 59.4496 18.592ZM69.7009 21V0.391998H73.2009V21H69.7009ZM83.8337 21.28C81.463 21.28 79.6057 20.6267 78.2617 19.32C76.9177 18.0133 76.2457 16.2213 76.2457 13.944C76.2457 12.4693 76.535 11.1813 77.1137 10.08C77.6923 8.97867 78.495 8.12 79.5217 7.504C80.567 6.888 81.7803 6.58 83.1617 6.58C84.5243 6.58 85.663 6.86933 86.5777 7.448C87.4923 8.02667 88.183 8.83867 88.6497 9.884C89.135 10.9293 89.3777 12.152 89.3777 13.552V14.476H79.0737V12.628H86.8857L86.4097 13.02C86.4097 11.7133 86.1297 10.7147 85.5697 10.024C85.0283 9.33333 84.235 8.988 83.1897 8.988C82.0323 8.988 81.1363 9.39867 80.5017 10.22C79.8857 11.0413 79.5777 12.1893 79.5777 13.664V14.028C79.5777 15.5587 79.951 16.7067 80.6977 17.472C81.463 18.2187 82.5363 18.592 83.9177 18.592C84.7203 18.592 85.467 18.4893 86.1577 18.284C86.867 18.06 87.539 17.7053 88.1737 17.22L89.2097 19.572C88.5377 20.1133 87.735 20.5333 86.8017 20.832C85.8683 21.1307 84.879 21.28 83.8337 21.28ZM103.945 21L98.4291 6.86H102.041L106.017 17.864H105.289L109.321 6.86H111.813L115.817 17.864H115.173L119.121 6.86H122.537L117.021 21H113.941L109.713 9.744H111.197L107.053 21H103.945ZM131.302 21.28C128.932 21.28 127.074 20.6267 125.73 19.32C124.386 18.0133 123.714 16.2213 123.714 13.944C123.714 12.4693 124.004 11.1813 124.582 10.08C125.161 8.97867 125.964 8.12 126.99 7.504C128.036 6.888 129.249 6.58 130.63 6.58C131.993 6.58 133.132 6.86933 134.046 7.448C134.961 8.02667 135.652 8.83867 136.118 9.884C136.604 10.9293 136.846 12.152 136.846 13.552V14.476H126.542V12.628H134.354L133.878 13.02C133.878 11.7133 133.598 10.7147 133.038 10.024C132.497 9.33333 131.704 8.988 130.658 8.988C129.501 8.988 128.605 9.39867 127.97 10.22C127.354 11.0413 127.046 12.1893 127.046 13.664V14.028C127.046 15.5587 127.42 16.7067 128.166 17.472C128.932 18.2187 130.005 18.592 131.386 18.592C132.189 18.592 132.936 18.4893 133.626 18.284C134.336 18.06 135.008 17.7053 135.642 17.22L136.678 19.572C136.006 20.1133 135.204 20.5333 134.27 20.832C133.337 21.1307 132.348 21.28 131.302 21.28ZM145.27 21.28C144.038 21.28 142.956 20.9907 142.022 20.412C141.089 19.8147 140.361 18.9653 139.838 17.864C139.316 16.7627 139.054 15.4467 139.054 13.916C139.054 12.3853 139.316 11.0787 139.838 9.996C140.361 8.89467 141.089 8.05467 142.022 7.476C142.956 6.87867 144.038 6.58 145.27 6.58C146.465 6.58 147.51 6.87867 148.406 7.476C149.321 8.05467 149.928 8.83867 150.226 9.828H149.918L150.226 6.86H153.586C153.53 7.43867 153.474 8.02667 153.418 8.624C153.381 9.22133 153.362 9.80933 153.362 10.388V21H149.89L149.862 18.088H150.198C149.9 19.0587 149.293 19.8333 148.378 20.412C147.464 20.9907 146.428 21.28 145.27 21.28ZM146.25 18.592C147.352 18.592 148.238 18.2093 148.91 17.444C149.582 16.66 149.918 15.484 149.918 13.916C149.918 12.348 149.582 11.1813 148.91 10.416C148.238 9.65067 147.352 9.268 146.25 9.268C145.149 9.268 144.262 9.65067 143.59 10.416C142.918 11.1813 142.582 12.348 142.582 13.916C142.582 15.484 142.909 16.66 143.562 17.444C144.234 18.2093 145.13 18.592 146.25 18.592ZM157.174 21V0.391998H160.674V21H157.174ZM170.522 21.28C168.842 21.28 167.573 20.8413 166.714 19.964C165.856 19.0867 165.426 17.7707 165.426 16.016V9.492H162.71V6.86H165.426V3.248L168.926 2.352V6.86H172.706V9.492H168.926V15.792C168.926 16.7627 169.113 17.444 169.486 17.836C169.86 18.228 170.373 18.424 171.026 18.424C171.381 18.424 171.68 18.396 171.922 18.34C172.184 18.284 172.436 18.2093 172.678 18.116V20.888C172.361 21.0187 172.006 21.112 171.614 21.168C171.241 21.2427 170.877 21.28 170.522 21.28ZM175.084 21V0.391998H178.584V9.688H178.192C178.621 8.68 179.284 7.91467 180.18 7.392C181.076 6.85067 182.102 6.58 183.26 6.58C184.94 6.58 186.19 7.056 187.012 8.008C187.833 8.94133 188.244 10.3693 188.244 12.292V21H184.744V12.46C184.744 11.3587 184.529 10.5653 184.1 10.08C183.689 9.576 183.026 9.324 182.112 9.324C181.048 9.324 180.189 9.66 179.536 10.332C178.901 10.9853 178.584 11.8627 178.584 12.964V21H175.084ZM205.098 21.28C203.866 21.28 202.784 20.9907 201.85 20.412C200.917 19.8147 200.189 18.9653 199.666 17.864C199.144 16.7627 198.882 15.4467 198.882 13.916C198.882 12.3853 199.144 11.0787 199.666 9.996C200.189 8.89467 200.917 8.05467 201.85 7.476C202.784 6.87867 203.866 6.58 205.098 6.58C206.293 6.58 207.338 6.87867 208.234 7.476C209.149 8.05467 209.756 8.83867 210.054 9.828H209.746L210.054 6.86H213.414C213.358 7.43867 213.302 8.02667 213.246 8.624C213.209 9.22133 213.19 9.80933 213.19 10.388V21H209.718L209.69 18.088H210.026C209.728 19.0587 209.121 19.8333 208.206 20.412C207.292 20.9907 206.256 21.28 205.098 21.28ZM206.078 18.592C207.18 18.592 208.066 18.2093 208.738 17.444C209.41 16.66 209.746 15.484 209.746 13.916C209.746 12.348 209.41 11.1813 208.738 10.416C208.066 9.65067 207.18 9.268 206.078 9.268C204.977 9.268 204.09 9.65067 203.418 10.416C202.746 11.1813 202.41 12.348 202.41 13.916C202.41 15.484 202.737 16.66 203.39 17.444C204.062 18.2093 204.958 18.592 206.078 18.592ZM217.002 21V6.86H220.502V21H217.002ZM216.806 4.2V0.783998H220.698V4.2H216.806Z" fill="#FFE9C5"/>
</svg>
