<svg width="303" height="43" viewBox="0 0 303 43" fill="none" xmlns="http://www.w3.org/2000/svg">
<path d="M70.18 33.3C67.98 33.3 66.09 32.86 64.51 31.98C62.95 31.08 61.75 29.82 60.91 28.2C60.07 26.56 59.65 24.63 59.65 22.41C59.65 20.19 60.07 18.27 60.91 16.65C61.75 15.03 62.95 13.78 64.51 12.9C66.09 12 67.98 11.55 70.18 11.55C71.66 11.55 72.99 11.76 74.17 12.18C75.37 12.6 76.4 13.22 77.26 14.04L76 17.1C75.06 16.34 74.15 15.8 73.27 15.48C72.41 15.14 71.42 14.97 70.3 14.97C68.16 14.97 66.52 15.62 65.38 16.92C64.26 18.2 63.7 20.03 63.7 22.41C63.7 24.79 64.26 26.63 65.38 27.93C66.52 29.23 68.16 29.88 70.3 29.88C71.42 29.88 72.41 29.72 73.27 29.4C74.15 29.06 75.06 28.5 76 27.72L77.26 30.78C76.4 31.58 75.37 32.2 74.17 32.64C72.99 33.08 71.66 33.3 70.18 33.3ZM86.3624 33.3C84.8024 33.3 83.4524 32.98 82.3124 32.34C81.1724 31.7 80.2824 30.79 79.6424 29.61C79.0224 28.43 78.7124 27.03 78.7124 25.41C78.7124 23.79 79.0224 22.4 79.6424 21.24C80.2824 20.06 81.1724 19.15 82.3124 18.51C83.4524 17.87 84.8024 17.55 86.3624 17.55C87.9224 17.55 89.2724 17.87 90.4124 18.51C91.5724 19.15 92.4624 20.06 93.0824 21.24C93.7224 22.4 94.0424 23.79 94.0424 25.41C94.0424 27.03 93.7224 28.43 93.0824 29.61C92.4624 30.79 91.5724 31.7 90.4124 32.34C89.2724 32.98 87.9224 33.3 86.3624 33.3ZM86.3624 30.42C87.5424 30.42 88.4824 30.01 89.1824 29.19C89.8824 28.35 90.2324 27.09 90.2324 25.41C90.2324 23.73 89.8824 22.48 89.1824 21.66C88.4824 20.84 87.5424 20.43 86.3624 20.43C85.1824 20.43 84.2424 20.84 83.5424 21.66C82.8424 22.48 82.4924 23.73 82.4924 25.41C82.4924 27.09 82.8424 28.35 83.5424 29.19C84.2424 30.01 85.1824 30.42 86.3624 30.42ZM102.736 33.3C100.876 33.3 99.4863 32.79 98.5663 31.77C97.6463 30.75 97.1863 29.19 97.1863 27.09V17.85H100.936V27.06C100.936 28.18 101.166 29.01 101.626 29.55C102.086 30.07 102.786 30.33 103.726 30.33C104.786 30.33 105.646 29.97 106.306 29.25C106.986 28.53 107.326 27.58 107.326 26.4V17.85H111.076V33H107.416V29.91H107.836C107.396 30.99 106.726 31.83 105.826 32.43C104.946 33.01 103.916 33.3 102.736 33.3ZM115.147 39.48V21.63C115.147 21.01 115.127 20.38 115.087 19.74C115.047 19.1 114.987 18.47 114.907 17.85H118.537L118.867 21.03H118.537C118.837 19.97 119.467 19.13 120.427 18.51C121.407 17.87 122.537 17.55 123.817 17.55C125.157 17.55 126.327 17.87 127.327 18.51C128.327 19.13 129.107 20.03 129.667 21.21C130.227 22.37 130.507 23.77 130.507 25.41C130.507 27.05 130.227 28.46 129.667 29.64C129.107 30.82 128.327 31.73 127.327 32.37C126.327 32.99 125.157 33.3 123.817 33.3C122.557 33.3 121.447 32.99 120.487 32.37C119.527 31.75 118.887 30.92 118.567 29.88H118.897V39.48H115.147ZM122.767 30.42C123.967 30.42 124.927 30.01 125.647 29.19C126.367 28.35 126.727 27.09 126.727 25.41C126.727 23.73 126.367 22.48 125.647 21.66C124.927 20.84 123.967 20.43 122.767 20.43C121.587 20.43 120.637 20.84 119.917 21.66C119.197 22.48 118.837 23.73 118.837 25.41C118.837 27.09 119.197 28.35 119.917 29.19C120.637 30.01 121.587 30.42 122.767 30.42ZM133.751 33V10.92H137.501V33H133.751ZM148.893 33.3C146.353 33.3 144.363 32.6 142.923 31.2C141.483 29.8 140.763 27.88 140.763 25.44C140.763 23.86 141.073 22.48 141.693 21.3C142.313 20.12 143.173 19.2 144.273 18.54C145.393 17.88 146.693 17.55 148.173 17.55C149.633 17.55 150.853 17.86 151.833 18.48C152.813 19.1 153.553 19.97 154.053 21.09C154.573 22.21 154.833 23.52 154.833 25.02V26.01H143.793V24.03H152.163L151.653 24.45C151.653 23.05 151.353 21.98 150.753 21.24C150.173 20.5 149.323 20.13 148.203 20.13C146.963 20.13 146.003 20.57 145.323 21.45C144.663 22.33 144.333 23.56 144.333 25.14V25.53C144.333 27.17 144.733 28.4 145.533 29.22C146.353 30.02 147.503 30.42 148.983 30.42C149.843 30.42 150.643 30.31 151.383 30.09C152.143 29.85 152.863 29.47 153.543 28.95L154.653 31.47C153.933 32.05 153.073 32.5 152.073 32.82C151.073 33.14 150.013 33.3 148.893 33.3ZM172.421 33L164.951 11.85H168.971L174.731 29.19H173.531L179.741 11.85H182.621L188.381 29.19H187.271L193.301 11.85H197.081L189.551 33H186.341L180.761 16.74H181.421L175.631 33H172.421ZM205.319 33.3C202.779 33.3 200.789 32.6 199.349 31.2C197.909 29.8 197.189 27.88 197.189 25.44C197.189 23.86 197.499 22.48 198.119 21.3C198.739 20.12 199.599 19.2 200.699 18.54C201.819 17.88 203.119 17.55 204.599 17.55C206.059 17.55 207.279 17.86 208.259 18.48C209.239 19.1 209.979 19.97 210.479 21.09C210.999 22.21 211.259 23.52 211.259 25.02V26.01H200.219V24.03H208.589L208.079 24.45C208.079 23.05 207.779 21.98 207.179 21.24C206.599 20.5 205.749 20.13 204.629 20.13C203.389 20.13 202.429 20.57 201.749 21.45C201.089 22.33 200.759 23.56 200.759 25.14V25.53C200.759 27.17 201.159 28.4 201.959 29.22C202.779 30.02 203.929 30.42 205.409 30.42C206.269 30.42 207.069 30.31 207.809 30.09C208.569 29.85 209.289 29.47 209.969 28.95L211.079 31.47C210.359 32.05 209.499 32.5 208.499 32.82C207.499 33.14 206.439 33.3 205.319 33.3ZM220.285 33.3C218.965 33.3 217.805 32.99 216.805 32.37C215.805 31.73 215.025 30.82 214.465 29.64C213.905 28.46 213.625 27.05 213.625 25.41C213.625 23.77 213.905 22.37 214.465 21.21C215.025 20.03 215.805 19.13 216.805 18.51C217.805 17.87 218.965 17.55 220.285 17.55C221.565 17.55 222.685 17.87 223.645 18.51C224.625 19.13 225.275 19.97 225.595 21.03H225.265L225.595 17.85H229.195C229.135 18.47 229.075 19.1 229.015 19.74C228.975 20.38 228.955 21.01 228.955 21.63V33H225.235L225.205 29.88H225.565C225.245 30.92 224.595 31.75 223.615 32.37C222.635 32.99 221.525 33.3 220.285 33.3ZM221.335 30.42C222.515 30.42 223.465 30.01 224.185 29.19C224.905 28.35 225.265 27.09 225.265 25.41C225.265 23.73 224.905 22.48 224.185 21.66C223.465 20.84 222.515 20.43 221.335 20.43C220.155 20.43 219.205 20.84 218.485 21.66C217.765 22.48 217.405 23.73 217.405 25.41C217.405 27.09 217.755 28.35 218.455 29.19C219.175 30.01 220.135 30.42 221.335 30.42ZM233.038 33V10.92H236.788V33H233.038ZM247.34 33.3C245.54 33.3 244.18 32.83 243.26 31.89C242.34 30.95 241.88 29.54 241.88 27.66V20.67H238.97V17.85H241.88V13.98L245.63 13.02V17.85H249.68V20.67H245.63V27.42C245.63 28.46 245.83 29.19 246.23 29.61C246.63 30.03 247.18 30.24 247.88 30.24C248.26 30.24 248.58 30.21 248.84 30.15C249.12 30.09 249.39 30.01 249.65 29.91V32.88C249.31 33.02 248.93 33.12 248.51 33.18C248.11 33.26 247.72 33.3 247.34 33.3ZM252.228 33V10.92H255.978V20.88H255.558C256.018 19.8 256.728 18.98 257.688 18.42C258.648 17.84 259.748 17.55 260.988 17.55C262.788 17.55 264.128 18.06 265.008 19.08C265.888 20.08 266.328 21.61 266.328 23.67V33H262.578V23.85C262.578 22.67 262.348 21.82 261.888 21.3C261.448 20.76 260.738 20.49 259.758 20.49C258.618 20.49 257.698 20.85 256.998 21.57C256.318 22.27 255.978 23.21 255.978 24.39V33H252.228ZM269.884 33V28.83H274.084V33H269.884ZM283.507 33.3C282.187 33.3 281.027 32.99 280.027 32.37C279.027 31.73 278.247 30.82 277.687 29.64C277.127 28.46 276.847 27.05 276.847 25.41C276.847 23.77 277.127 22.37 277.687 21.21C278.247 20.03 279.027 19.13 280.027 18.51C281.027 17.87 282.187 17.55 283.507 17.55C284.787 17.55 285.907 17.87 286.867 18.51C287.847 19.13 288.497 19.97 288.817 21.03H288.487L288.817 17.85H292.417C292.357 18.47 292.297 19.1 292.237 19.74C292.197 20.38 292.177 21.01 292.177 21.63V33H288.457L288.427 29.88H288.787C288.467 30.92 287.817 31.75 286.837 32.37C285.857 32.99 284.747 33.3 283.507 33.3ZM284.557 30.42C285.737 30.42 286.687 30.01 287.407 29.19C288.127 28.35 288.487 27.09 288.487 25.41C288.487 23.73 288.127 22.48 287.407 21.66C286.687 20.84 285.737 20.43 284.557 20.43C283.377 20.43 282.427 20.84 281.707 21.66C280.987 22.48 280.627 23.73 280.627 25.41C280.627 27.09 280.977 28.35 281.677 29.19C282.397 30.01 283.357 30.42 284.557 30.42ZM296.261 33V17.85H300.011V33H296.261ZM296.051 15V11.34H300.221V15H296.051Z" fill="#FFE9C5"/>
<circle cx="21.5" cy="21.5" r="21.5" fill="url(#paint0_radial_11_4)"/>
<defs>
<radialGradient id="paint0_radial_11_4" cx="0" cy="0" r="1" gradientUnits="userSpaceOnUse" gradientTransform="translate(21.5 21.5) rotate(-180) scale(21.5)">
<stop offset="0.411275" stop-color="white" stop-opacity="0"/>
<stop offset="0.925" stop-color="#FFE9C5"/>
</radialGradient>
</defs>
</svg>
